<svg xmlns="http://www.w3.org/2000/svg" viewBox="0 0 320 180" width="320" height="180">
  <defs>
    <linearGradient id="gjuego-local-1" x1="0%" y1="0%" x2="100%" y2="100%">
      <stop offset="0%" style="stop-color:#0a0a15"/>
      <stop offset="100%" style="stop-color:#1a1a30"/>
    </linearGradient>
    <linearGradient id="tjuego-local-1" x1="0%" y1="0%" x2="100%" y2="0%">
      <stop offset="0%" style="stop-color:#ff8800"/>
      <stop offset="100%" style="stop-color:#ff4400"/>
    </linearGradient>
  </defs>
  <rect width="320" height="180" fill="url(#gjuego-local-1)"/>
  <rect width="320" height="180" fill="none" stroke="#ff8800" stroke-width="2" stroke-opacity="0.3"/>
  <!-- Grid pattern sutil -->
  <path d="M0 30 L320 30 M0 60 L320 60 M0 90 L320 90 M0 120 L320 120 M0 150 L320 150 M40 0 L40 180 M80 0 L80 180 M120 0 L120 180 M160 0 L160 180 M200 0 L200 180 M240 0 L240 180 M280 0 L280 180"
        stroke="#ff8800" stroke-width="0.4" stroke-opacity="0.08"/>
  <!-- Ícono grande -->
  <text x="160" y="95" font-family="serif" font-size="58" text-anchor="middle" dominant-baseline="middle" opacity="0.9">🐍</text>
  <!-- Glow del ícono -->
  <circle cx="160" cy="85" r="45" fill="#ff8800" opacity="0.06"/>
  <!-- Barra inferior con nombre -->
  <rect x="0" y="140" width="320" height="40" fill="#ff8800" opacity="0.15"/>
  <rect x="0" y="140" width="320" height="2" fill="#ff8800" opacity="0.5"/>
  <text x="160" y="165" font-family="Arial, sans-serif" font-size="15" font-weight="bold"
        text-anchor="middle" fill="#ffffff" opacity="0.95">Snake Gor2</text>
  <!-- Badge LOCAL -->
  <rect x="8" y="8" width="46" height="18" rx="4" fill="#ff8800" opacity="0.25"/>
  <rect x="8" y="8" width="46" height="18" rx="4" fill="none" stroke="#ff8800" stroke-width="1" stroke-opacity="0.6"/>
  <text x="31" y="20" font-family="Arial, sans-serif" font-size="9" font-weight="bold"
        text-anchor="middle" fill="#ff8800">LOCAL</text>
</svg>